<svg
                    width="26"
                    height="36"
                    viewBox="0 0 26 36"
                    fill="none"
                    xmlns="http://www.w3.org/2000/svg"
                  >
                    <g>
                      <path
                        fill-rule="evenodd"
                        clip-rule="evenodd"
                        d="M16.3382 4.69252C18.0489 5.59458 19.4485 6.3579 19.4482 6.38895C19.4475 6.46908 15.3424 8.57347 15.1967 8.56834C15.1304 8.5661 14.6496 8.34207 14.1283 8.07056L13.1803 7.577L12.145 8.11569L11.1097 8.65448L9.41425 7.88331C6.85953 6.72127 6.59419 6.59393 6.63579 6.55115C6.69097 6.49439 7.6073 5.9961 10.0934 4.67126C11.2948 4.03095 12.461 3.40314 12.6848 3.27611C12.9087 3.14907 13.1224 3.04688 13.1597 3.04886C13.197 3.05083 14.6274 3.79049 16.3382 4.69252ZM23.8414 8.62551L25.6223 9.55664V13.6432C25.6223 15.8908 25.5989 17.7297 25.5702 17.7297C25.5416 17.7297 24.6654 17.3452 23.6232 16.8753L21.7282 16.021V11.7135L20.8021 12.2242C20.0885 12.6174 19.3745 13.0097 18.6601 13.4013L17.4441 14.0677L16.903 13.8201C16.5637 13.6645 16.225 13.5074 15.887 13.3488C15.6258 13.2257 14.9847 12.9334 14.4624 12.6991C13.94 12.4648 13.4564 12.2291 13.3879 12.1754C13.2968 12.1041 14.4074 11.4828 17.4959 9.87743C19.8239 8.66732 21.8033 7.68107 21.8946 7.68579C21.9858 7.69052 22.8619 8.11334 23.8414 8.62551ZM6.31483 8.88699C7.52771 9.44123 8.52091 9.91686 8.52204 9.94398C8.5231 9.97107 7.86204 10.3689 7.05293 10.828C6.24389 11.2872 5.5819 11.6874 5.5819 11.7175C5.5819 11.7476 6.29784 12.0987 7.17277 12.498C8.04782 12.8971 10.2596 13.9082 12.0879 14.7448L18.214 17.5478C19.755 18.2529 21.144 18.8885 21.3007 18.9604C24.4484 20.4027 25.3135 20.8029 25.4323 20.8716C25.5518 20.9408 25.5789 21.3426 25.6001 23.3594L25.6255 25.7648L24.033 26.5862L22.4405 27.4075L20.2323 26.3987C19.0177 25.8439 18.024 25.3609 18.024 25.3254C18.024 25.2899 18.2485 25.1419 18.5226 24.9963C18.797 24.8507 19.3632 24.5284 19.7811 24.28C20.199 24.0315 20.6157 23.8036 20.7072 23.7733C20.7986 23.7432 20.8721 23.6904 20.8706 23.656C20.8691 23.6217 19.8967 23.1542 18.7099 22.617C16.4046 21.5737 14.6405 20.7696 10.8532 19.0359C9.15962 18.2609 7.46584 17.4863 5.77186 16.7121C4.28308 16.0319 2.55211 15.2375 1.92524 14.9467L0.785499 14.4181L0.76016 11.9853L0.734689 9.55261L2.3499 8.71342C3.2383 8.25191 3.99766 7.87543 4.03748 7.8768C4.07726 7.87808 5.10206 8.33261 6.31483 8.88699ZM1.21824 17.6636C1.45626 17.7813 1.9264 18.0016 2.26298 18.1532C2.59957 18.3048 3.2383 18.5965 3.68234 18.8016L4.48966 19.1743L4.50808 21.3101C4.51825 22.4847 4.56097 23.4406 4.60304 23.4344C4.6986 23.42 6.21169 22.6345 7.73267 21.8095C8.83044 21.2142 8.8994 21.1905 9.15735 21.3198C9.30647 21.3946 10.1978 21.7993 11.1381 22.2192C12.0784 22.6391 12.8784 23.01 12.916 23.0436C12.9535 23.0772 11.0611 24.1154 8.71047 25.351L4.43673 27.5974L2.61107 26.6414C1.60706 26.1157 0.753304 25.6362 0.713988 25.5759C0.625485 25.4403 0.63307 17.431 0.721672 17.4418C0.756716 17.4461 0.980225 17.5459 1.21824 17.6636ZM11.3281 27.0644C11.6447 27.2022 11.9613 27.3403 12.2778 27.4785C13.2336 27.897 13.0463 27.9109 14.1834 27.3379C14.9407 26.9563 15.2672 26.8386 15.4089 26.8957C15.5152 26.9386 16.4299 27.3551 17.4418 27.8214C18.4536 28.2877 19.3166 28.6692 19.3595 28.6692C19.784 28.6692 19.0783 29.096 16.3549 30.4866L13.1609 32.1173L11.8171 31.4457C11.078 31.0763 9.58722 30.3367 8.50418 29.8021C7.42125 29.2673 6.54858 28.8159 6.56491 28.7989C6.58137 28.7819 7.48879 28.3102 8.58149 27.7507L10.5682 26.7336L11.3281 27.0644Z"
                        fill="currentColor"
                      />
                    </g>
                  </svg>