<svg width="102" height="72" viewBox="0 0 102 72" fill="none" xmlns="http://www.w3.org/2000/svg">
<path d="M61.9286 45.7627C61.9286 60.2532 48.0654 72 30.9643 72C13.8632 72 0 60.2532 0 45.7627C0 31.2723 13.8632 19.5254 30.9643 19.5254C48.0654 19.5254 61.9286 31.2723 61.9286 45.7627Z" fill="white"/>
<path d="M71.6429 26.2373C71.6429 40.7277 57.7797 52.4746 40.6786 52.4746C23.5775 52.4746 9.71429 40.7277 9.71429 26.2373C9.71429 11.7468 23.5775 0 40.6786 0C57.7797 0 71.6429 11.7468 71.6429 26.2373Z" fill="white"/>
<path d="M102 37.2203C102 54.4067 87.0495 68.339 68.6071 68.339C50.1648 68.339 35.2143 54.4067 35.2143 37.2203C35.2143 20.034 50.1648 6.1017 68.6071 6.1017C87.0495 6.1017 102 20.034 102 37.2203Z" fill="white"/>
</svg>
