<svg
                    width="31"
                    height="37"
                    viewBox="0 0 31 37"
                    fill="none"
                    xmlns="http://www.w3.org/2000/svg"
                  >
                    <path
                      d="M26.8568 7.73511C26.8568 7.73511 29.3863 6.78824 29.1755 9.08779C29.1052 10.0347 28.4729 13.3487 27.981 16.9334L26.2947 27.5519C26.2947 27.5519 26.1542 29.1075 24.8894 29.378C23.6246 29.6485 21.7276 28.4312 21.3762 28.1606C21.0952 27.9577 16.1065 24.9142 14.3498 23.4262C13.858 23.0204 13.2959 22.2088 14.4201 21.2619L21.7978 14.4986C22.641 13.6869 23.4841 11.7932 19.9709 14.0927L10.134 20.518C10.134 20.518 9.0098 21.1943 6.90192 20.5856L2.33475 19.2329C2.33475 19.2329 0.648412 18.2184 3.52923 17.2039C10.5556 14.0251 19.1981 10.7786 26.8568 7.73511Z"
                      fill="currentColor"
                    />
                  </svg>

                   