<svg
                  width="24"
                  height="20"
                  viewBox="0 0 24 20"
                  fill="none"
                  xmlns="http://www.w3.org/2000/svg"
                >
                  <path
                    d="M21.7635 0.929088C21.7635 0.929088 23.9557 0.108464 23.773 2.10141C23.7121 2.92205 23.1641 5.79423 22.7378 8.90091L21.2763 18.1037C21.2763 18.1037 21.1546 19.4518 20.0584 19.6863C18.9623 19.9207 17.3182 18.8657 17.0136 18.6312C16.7701 18.4554 12.4465 15.8176 10.9241 14.5281C10.4978 14.1764 10.0107 13.473 10.985 12.6523L17.379 6.79074C18.1098 6.08733 18.8405 4.44608 15.7957 6.43903L7.27041 12.0076C7.27041 12.0076 6.29609 12.5937 4.46926 12.0662L0.511045 10.8939C0.511045 10.8939 -0.950446 10.0146 1.54627 9.13534C7.63581 6.38037 15.1259 3.56679 21.7635 0.929088Z"
                    fill="currentColor"
                  />
                </svg>